<?xml version="1.0" ?><!DOCTYPE svg  PUBLIC '-//W3C//DTD SVG 1.1//EN'  'http://www.w3.org/Graphics/SVG/1.1/DTD/svg11.dtd'><svg height="2048px" style="shape-rendering:geometricPrecision; text-rendering:geometricPrecision; image-rendering:optimizeQuality; fill-rule:evenodd; clip-rule:evenodd" version="1.1" viewBox="0 0 2048 2048" width="2048px" xml:space="preserve" xmlns="http://www.w3.org/2000/svg" xmlns:xlink="http://www.w3.org/1999/xlink"><defs><style type="text/css">
   <![CDATA[
    .fil2 {fill:none}
    .fil0 {fill:#424242}
    .fil1 {fill:#FFFFFE}
   ]]>
  </style></defs><g id="Layer_x0020_1"><circle class="fil0" cx="1024" cy="1024" r="672.001"/><path class="fil1" d="M689.98 1383.41l0 0zm561.578 273.047c-71.0705,25.5756 -147.679,39.5445 -227.558,39.5445 -51.5552,0 -101.747,-5.82402 -149.972,-16.8177 -0.00826772,-12.3 -0.119291,-23.974 -0.265748,-39.4548 -0.17126,-18.0118 -0.38504,-40.3926 -0.562205,-66.0508 -192.885,35.0173 -237.916,-100.448 -239.764,-106.277 -30.6921,-77.5796 -72.9001,-97.3583 -73.0229,-97.4174l-1.58386 -0.885827c-97.2166,-66.4382 11.3504,-65.0611 11.6575,-65.0599l0.746457 0c76.0359,5.35158 116.532,75.4583 118.739,79.376 23.1213,39.5953 51.5587,59.1237 79.8142,67.1906 40.9855,11.7 82.317,-0.135827 106.73,-10.2284 3.3874,-20.0173 8.96575,-37.3264 15.9272,-51.9886 4.69134,-9.87757 10.0264,-18.5894 15.7642,-26.1532 -73.6583,-10.4516 -147.475,-31.7918 -205.139,-80.3339 -63.9804,-53.8607 -107.345,-140.378 -107.345,-281.074l0.046063 0c0.00590552,-39.3437 6.81615,-75.1855 19.2437,-107.571 12.3165,-32.1 30.1677,-60.8587 52.3949,-86.3198 -4.25197,-12.0839 -10.1575,-33.1453 -12.0225,-61.0264 -2.27953,-34.0996 1.43976,-78.5906 21.6154,-129.601l0.465355 -0.930709c0.0129921,-0.0248032 8.77205,-7.48465 21.1524,-8.11064 8.16733,-0.413386 20.4945,0.0153543 37.1315,3.37914 32.3988,6.5504 82.0288,24.5173 150.543,70.2591 27.0697,-7.27678 55.0087,-12.8067 83.3481,-16.6193 30.6626,-4.12323 61.8851,-6.23859 93.0662,-6.37678l0.0933072 0c31.1457,0.138189 62.3327,2.25473 92.9764,6.3756 28.3524,3.81378 56.3174,9.34843 83.4367,16.6252 137.728,-91.9749 201.197,-71.6894 201.385,-71.6351l5.54882 1.64528 2.13662 5.38819c20.2536,51.078 24.0095,95.5265 21.75,129.554 -1.85197,27.8752 -7.73505,48.9272 -11.9693,61.0217 22.2142,25.3973 40.0099,54.1205 52.2993,86.2075 12.4536,32.5158 19.2449,68.419 19.2449,107.736 0,141.086 -43.428,227.563 -107.535,281.231 -57.7063,48.3118 -131.612,69.3745 -205.427,79.6477 8.6315,11.289 16.3902,25.1788 22.4492,41.7177 8.15316,22.2626 13.265,49.3819 13.265,81.4394 0,57.1997 -0.422835,116.713 -0.701575,156.118 -0.0401575,5.56536 -0.0755906,10.5874 -0.103937,15.476zm-595.354 -248.151c5.07993,0.520867 8.81575,4.65473 8.34686,9.23268 -0.470079,4.57678 -4.96772,7.86615 -10.0465,7.34528 -5.07993,-0.520867 -8.81575,-4.65473 -8.34686,-9.2315 0.470079,-4.57796 4.96772,-7.86733 10.0465,-7.34646zm19.1528 49.3441c0.468898,-4.57796 4.96654,-7.86733 10.0465,-7.34646 5.07874,0.520867 8.81575,4.65473 8.34568,9.23268 -0.468898,4.57796 -4.96654,7.86733 -10.0465,7.34646 -5.07874,-0.520867 -8.81457,-4.65473 -8.34568,-9.23268zm-66.3603 -113.609c5.07993,0.520867 8.81575,4.65473 8.34686,9.2315 -0.470079,4.57796 -4.96772,7.86733 -10.0465,7.34646 -5.07993,-0.520867 -8.81575,-4.65473 -8.34686,-9.2315 0.470079,-4.57796 4.96772,-7.86733 10.0465,-7.34646zm24.5492 27.3862c5.07993,0.520867 8.81575,4.65473 8.34686,9.23268 -0.470079,4.57678 -4.96772,7.86733 -10.0465,7.34646 -5.07874,-0.520867 -8.81575,-4.65473 -8.34568,-9.23268 0.468898,-4.57796 4.96654,-7.86733 10.0453,-7.34646zm91.2119 107.849c5.07993,0.520867 8.81575,4.65473 8.34686,9.23268 -0.470079,4.57796 -4.96772,7.86733 -10.0465,7.34646 -5.07993,-0.520867 -8.81575,-4.65473 -8.34686,-9.23268 0.470079,-4.57678 4.96772,-7.86733 10.0465,-7.34646zm56.6174 15.4264c5.07874,0.520867 8.81575,4.65473 8.34686,9.2315 -0.470079,4.57796 -4.96772,7.86733 -10.0465,7.34646 -5.07993,-0.520867 -8.81575,-4.65473 -8.34686,-9.23268 0.470079,-4.57678 4.96772,-7.86615 10.0465,-7.34528zm52.3241 -4.25433c5.07874,0.520867 8.81457,4.65473 8.34568,9.23268 -0.468898,4.57678 -4.96654,7.86615 -10.0465,7.34528 -5.07874,-0.520867 -8.81575,-4.65473 -8.34568,-9.2315 0.468898,-4.57796 4.96654,-7.86733 10.0465,-7.34646z"/></g><rect class="fil2" height="2048" width="2048"/></svg>